

<svg
   version="1.1"
   id="svg1974"
   width="1920"
   height="1920"
   viewBox="0 0 1920 1920"
   xmlns="http://www.w3.org/2000/svg"
  >
  <defs
     id="defs1978" />
  <g
     id="g1980">
    <path
       style="fill:#1b1b1b;stroke:none"
       d="m 955,185 c 1.17,-1.171 13.791,-14.131 5.926,-13.079 -4.099,0.548 -5.878,5.899 -9.926,6.449 -3.366,0.456 -11.997,-10.327 -14.673,-5.747 -2.507,4.291 6.477,8.144 7.466,11.547 1.205,4.146 -6.782,7.253 -4.466,11.207 1.034,1.765 3.387,0.774 4.688,0.002 2.47,-1.465 4.721,-4.989 7.985,-4.176 3.195,0.796 6.81,6.95 10.573,4.661 C 967.43,192.909 957.021,186.265 955,185 m 80.62,17.038 c -3.69,2.865 2.35,5.344 4.38,5.947 7.1,2.104 14.67,3.141 22,3.965 31.64,3.554 64.49,0.362 95,11.268 10.07,3.6 18.64,8.537 27,15.202 1.72,1.375 5.94,5.559 8.25,2.918 2.52,-2.888 -3.46,-7.49 -5.25,-9.038 -7.57,-6.525 -16.65,-11.211 -26,-14.605 -30.29,-10.993 -61.81,-7.026 -93,-11.271 -7.74,-1.054 -15.39,-1.934 -23,-3.798 -2.56,-0.629 -6.97,-2.457 -9.38,-0.588 M 1049,242 v 1 c -15.89,-2.951 -34.43,-1.365 -50,2.734 -3.078,0.811 -15.815,2.953 -14.248,8.007 1.216,3.925 10.999,3.554 14.248,3.977 14.52,1.891 29.46,6.648 44,7.282 v 1 c -26.81,0 -52.852,-0.041 -78,10.72 -7.698,3.294 -21.265,7.731 -22,17.28 l 70,4 v 1 c -18.352,0.152 -39.425,7.864 -54,18.9 -3.023,2.289 -15.004,10.783 -11.914,15.497 3.042,4.638 23.993,-1.581 28.914,-2.267 20.772,-2.894 42.04,-5.13 63,-5.13 6.48,0 16.85,-1.976 22.86,0.603 5.75,2.472 10.93,18.208 15.43,23.397 10.58,12.192 9.76,26.481 11.98,42 4.36,30.511 11.48,63.202 11.73,94 -42.2,-5.334 -87.69,9.697 -126,26.15 -92.474,39.714 -176.835,107.948 -233.974,190.85 -26.314,38.178 -48.554,81.28 -58.023,127 -2.25,10.865 -4.422,21.908 -5.039,33 -0.173,3.111 -1.858,7.848 0.643,10.397 2.391,2.436 7.318,1.603 10.393,1.603 h 25 c -7.64,60.406 16.943,108.782 63,147.73 17.677,14.94 38.639,25.33 56,40.56 4.336,3.8 15.58,12.46 15.833,18.71 0.307,7.55 -14.671,21.15 -19.182,27 -11.768,15.27 -23.237,30.78 -35.075,46 -6.904,8.88 -15.559,17.93 -20.576,28 -137.927,-106.02 -349.982,-62.25 -443.305,81 -72.808,111.76 -66.96,257.82 13.435,364 26.552,35.07 62.488,65.51 101.87,85.25 43.485,21.8 91.044,35.75 140,35.75 56.023,0 111.057,-12.57 160,-40.58 62.873,-35.98 115.59,-95.22 139,-164.42 l 48,7.13 58,7.87 c -0.966,22.5 -3.625,53.02 24,61 -5.11,8.97 -9.76,22.29 -0.79,30.61 8.57,7.94 25.89,6.33 36.79,7.67 17.97,2.21 36,3.96 54,5.89 8.24,0.88 17.84,1.93 24.67,-3.96 6.61,-5.7 6.33,-14.28 6.33,-22.21 15.25,2.83 33.33,4.99 48,-1.34 21.96,-9.48 27.64,-34.91 9.99,-51.57 -21.81,-20.58 -55.58,-10.68 -77.99,-29.09 11.1,-3.2 20.05,-12.02 28,-20 26.39,-26.51 36.81,-66.91 27.27,-103 -4.22,-15.93 -12.07,-31.84 -23.27,-44 -5,-5.42 -19.14,-14.09 -18.81,-22 0.47,-11.13 15.23,-25.86 21.12,-35 19.21,-29.82 38.95,-59.29 58.35,-89 47.47,-72.72 95.21,-145.28 142.68,-218 15.48,-23.71 30.95,-47.441 46.66,-71 9.01,-13.512 20.06,-27.334 27,-42 h 1 l 10.2,47 20.6,106 12.2,65 c -27.97,3.61 -55.97,15.24 -81,27.75 -139.65,69.83 -205.39,239.05 -153.31,385.25 47.21,132.51 180.14,216.44 319.31,206.91 33.54,-2.3 67.1,-10.77 98,-23.91 39.1,-16.63 75.84,-40.8 104.91,-72 98.57,-105.82 116.25,-272.49 32.65,-393 -50.86,-73.33 -130.65,-123.65 -219.56,-134.72 -32.46,-4.03 -62.81,1.06 -95,1.72 l -6.75,-37 -19.86,-103 -8.39,-45 h 1 c 3.97,8.51 13.32,15.519 21,20.645 38.09,25.406 93.68,9.121 103.19,-38.645 6.09,-30.568 -6.16,-72.418 -38.19,-83.91 -32.86,-11.79 -84.17,20.178 -97,49.91 -5.66,-13.335 -7.07,-29.814 -10,-44 -5.46,-26.361 -11.44,-52.619 -16.8,-79 -2.04,-10.018 -4.36,-19.982 -6.4,-30 -0.66,-3.271 -2.83,-8.559 -1.47,-11.787 5.11,-12.139 17.38,-4.695 25.67,-5.553 13.37,-1.384 20.42,-16.68 20.96,-28.66 0.53,-11.77 -0.79,-22.242 -5.85,-33 -26.08,-55.469 -98.65,-42.723 -141.11,-17.548 -13.99,8.294 -26.26,18.992 -40,27.548 -1.26,-4.474 -2.18,-17.474 -7.23,-19.073 -3.27,-1.036 -7.69,1.424 -10.77,2.353 -7.97,2.402 -15.96,4.695 -24,6.871 -27.53,7.456 -55.51,13.941 -84,15.938 -15.47,1.085 -41.7,2.469 -46.32,-17.089 -3.87,-16.404 2.93,-34.094 9.32,-49 7.06,-16.464 16.6,-36.935 29.18,-49.896 8,-8.234 20.47,-13.776 29.82,-20.528 17.28,-12.479 33.52,-26.757 47.83,-42.576 18.74,-20.725 35.03,-46.023 39.73,-74 4.09,-24.311 0.44,-50.391 0.44,-75 0,-16.656 5.68,-43.971 -3.75,-58 -22.17,-32.987 -67.1,-43.12 -103.25,-52.37 -20.79,-5.321 -43.46,-9.511 -65,-7.46 -7.43,0.707 -16,1.295 -22.98,4.09 -8.8,3.524 0.37,7.772 4.98,8.74 m 334,23 -20,8.215 -17.4,-8.758 1.5,19.369 -14.18,14.871 18.8,4.482 8.75,17.645 5.21,-3.843 8.36,-13.378 17.61,-2.906 L 1379.2,285.985 1383,265 m -595,16 h -1 c -8.439,-9.465 -14.482,-0.879 -3,4 -2.423,4.253 -10.613,11.803 -9.967,16.847 1.084,8.453 13.019,-9.593 13.967,-11.847 3.297,1.386 7.184,5.255 10.851,5.147 7.804,-0.228 -4.016,-9.232 -5.851,-10.147 2.229,-3.611 9.946,-11.106 8.288,-15.663 C 798.946,262.901 789.115,278.998 788,281 m 756,0 c -3.64,0.288 -16.97,-1.163 -18.91,1.585 -4.59,6.479 16.41,5.009 18.91,4.415 0,1.897 0.01,22.152 4.98,15.573 3.12,-4.139 -0.83,-10.823 2.05,-15.154 2.46,-3.708 8.34,-3.425 11.52,-6.387 7.8,-7.271 -10.7,-2.35 -12.55,-2.032 0,-15.436 -6,-10.947 -6,2 m -310,23 -1,12 c -4.55,-1.515 -9.07,-3.9 -14,-3.62 -9.14,0.517 -17.69,6.236 -27,4.091 -12.32,-2.84 -20.29,-14.976 -34,-13.286 -12.58,1.551 -21.06,13.31 -34,14.297 -20.8,1.587 -37.25,-12.141 -53,8.518 -8.43,-20.09 18.53,-29.42 33,-31.05 42.47,-4.784 88.19,1.172 130,9.05 m -1,28 c -32.82,-4.238 -63.05,-8.854 -96,-1.576 -11.53,2.546 -22.46,6.551 -33,11.823 -4.14,2.071 -11.31,8.094 -16,7.65 -9.71,-0.918 -14.81,-16.397 -9.99,-23.803 8.92,-13.702 31.46,-2.82 43.99,-2.549 13.59,0.293 21.71,-11.094 34,-14.013 14.62,-3.471 24.32,11.645 38,13.284 10.18,1.218 20.03,-6.729 30,-3.869 6.94,1.99 8.98,6.406 9,13.053 m -726,76 c 3.439,-18.526 -4.366,-66.573 -34,-52.427 -16.286,7.774 -15.906,29.161 -5.671,41.423 8.193,9.817 19.736,13.908 31.671,17.004 -4.732,8.108 -8.805,15.483 -16,21.816 -4.89,4.303 -10.861,7.891 -17,10.094 -50.668,18.18 -73.912,-40.958 -106,-66.241 -27.596,-21.744 -60.938,-17.371 -80.644,12.331 -6.61,9.963 -10.456,21.513 -13.472,33 -0.682,2.599 -3.585,10.184 0.377,11.539 4.544,1.553 8.873,-20.087 10.084,-23.539 7.044,-20.083 23.575,-41.097 46.655,-41.741 21.003,-0.586 39.527,17.948 51.75,32.741 24.968,30.215 54.833,65.08 98.25,46.124 9.799,-4.278 18.316,-11.39 24.43,-20.124 2.839,-4.055 4.901,-12.27 8.988,-14.972 4.214,-2.786 12.558,-1.047 17.582,-2.456 15.645,-4.389 29.062,-14.271 37.124,-28.572 6.59,-11.689 8.308,-25.789 6.587,-39 -0.402,-3.086 -1.269,-12.364 -5.696,-12.364 -3.739,0 -2.366,5.28 -1.884,7.364 2.291,9.905 2.965,20.169 -0.16,30 -7.468,23.498 -28.762,37.997 -52.971,38 m 615,142 c -0.89,-20.658 -8.94,-38.369 -13.47,-58 -6.18,-26.773 -7.26,-55.742 -10.81,-83 -1.61,-12.329 -3.38,-24.644 -4.77,-37 -0.47,-4.192 -2.84,-10.748 -1.31,-14.79 3.04,-8.013 21.92,-13.672 29.36,-16.207 26.84,-9.142 56.97,-11.437 85,-7.424 6.57,0.941 20.39,0.518 25.4,5.278 2.75,2.613 1.6,8.726 1.6,12.143 0,10.931 -0.66,22.095 0.09,33 0.97,14.186 1.62,27.973 -1.52,42 -8.45,37.785 -36.71,68.987 -65.57,93.08 -13.39,11.179 -28.11,23.493 -44,30.92 m 434,-147 c -0.42,9.753 -1.79,18.434 1.36,28 4.52,13.73 15.2,23.932 29.64,26.536 18.49,3.332 37.83,-8.065 36.9,-28.536 -0.22,-4.727 -1.58,-9.637 -3.35,-14 -2.37,-5.815 -6.03,-10.639 -10.55,-14.957 -5.22,-4.978 -11.89,-8.297 -19,-9.579 -7.63,-1.375 -16.68,-0.943 -24,1.536 18.55,-39.681 68.66,-52.536 105,-29.934 12.44,7.738 17.68,19.337 26.96,29.601 1.69,1.861 5.14,2.354 5.51,-0.896 0.86,-7.515 -10.68,-19.021 -15.48,-23.732 -20.56,-20.145 -51.4,-27.767 -78.99,-19.6 -15.38,4.554 -29.55,13.952 -39.48,26.561 -4.7,5.963 -7.13,14.106 -12.16,19.61 -8.97,9.827 -22.8,14.731 -31.93,25.39 -16.06,18.748 -27.54,40.981 -44.52,58.996 -14.06,14.917 -32.83,26.375 -51.91,33.579 -27.14,10.242 -56.52,13.228 -85,7.421 -10.02,-2.043 -19.61,-5.405 -29,-9.423 -2.74,-1.174 -8.37,-5.287 -11.38,-3.293 -5.52,3.66 9.43,9.548 11.38,10.411 14.77,6.533 31.01,9.618 47,11.139 39.94,3.801 82.24,-10.123 113,-35.445 31.64,-26.05 45.43,-66.059 80,-89.385 m -350,-52.576 c -11.14,1.463 -29.74,0.726 -38.79,8.225 -6.9,5.727 -3.4,15.993 -1.79,23.351 2.86,13.001 5.79,25.984 8.58,39 1.25,5.834 4.07,12.986 2.91,18.996 -2.11,10.912 -17.12,3.915 -19.16,10.263 -1.58,4.926 8.9,3.843 11.25,3.557 14.16,-1.724 15.5,-13.289 13.2,-24.816 -2.87,-14.37 -6.04,-28.718 -9.32,-43 -1.19,-5.168 -4.81,-13.779 -3.19,-18.981 1.48,-4.735 7.13,-5.671 11.31,-6.595 9.54,-2.108 24.13,-0.652 32.68,-5.023 7.01,-3.586 -5.36,-5.281 -7.68,-4.977 M 501,408 c -6.533,-1.348 -13.225,-3.012 -19,-6.478 -5.967,-3.582 -11.729,-8.963 -14.387,-15.522 -4.832,-11.929 3.279,-30.409 18.387,-25.297 6.006,2.032 9.71,7.768 12.124,13.297 1.92,4.396 3.227,9.221 3.705,14 0.67,6.69 0.008,13.377 -0.829,20 m 688.06,-27.427 c -2.37,0.744 -5.42,4.254 -1.74,5.735 1.87,0.751 18.95,3.387 20.36,2.945 4.65,-1.457 -0.79,-6.414 -2.7,-7.414 -4.32,-2.259 -11.24,-2.737 -15.92,-1.266 m -56.06,2.906 c -2.41,0.282 -17.71,7.365 -10.66,9.785 3.24,1.113 7.46,-2.634 10.66,-3.162 3.82,-0.631 7.21,1.844 10.85,1.371 3.25,-0.422 2.89,-3.79 0.83,-5.465 -2.93,-2.375 -8.07,-2.951 -11.68,-2.529 m 442,12.821 c 15.79,-2.256 30.62,3.317 38.48,17.7 7.63,13.942 4.65,34.487 -13.48,37.671 -16.75,2.942 -32.87,-7.35 -37.24,-23.671 -3.53,-13.162 -3.76,-29.414 12.24,-31.7 m -452.78,68.76 c -5.79,1.08 -1.47,13.1 0.15,15.94 5.48,9.626 17.96,15.059 28.57,10.597 2.2,-0.924 5.36,-4.411 1.62,-5.901 -7.68,-3.057 -13.41,3.495 -21.23,-4.164 -2.84,-2.786 -5.71,-17.106 -9.11,-16.472 m -150.239,22.516 c -17.13,2.247 -36.69,13.531 -51.981,21.177 -37.385,18.693 -73.138,40.097 -105,67.378 -12.492,10.696 -25.825,21.523 -36.714,33.869 -1.502,1.702 -12.195,11.651 -6.949,13.503 4.117,1.454 10.212,-7.052 12.663,-9.503 11.59,-11.59 23.42,-22.727 36,-33.246 31.546,-26.38 66.214,-48.244 103,-66.506 11.366,-5.643 23.225,-10.338 35,-15.048 5.107,-2.043 12.264,-3.343 16.677,-6.616 3.43,-2.543 0.799,-5.466 -2.696,-5.008 M 1103,572 c -4.18,-28.328 -25.9,-58.752 -47,-77 8.69,-4.618 36.95,-7.592 44.81,-0.686 5.45,4.785 7.62,13.927 9.32,20.686 4.36,17.35 12.69,45.834 -7.13,57 m -54,-77 c 17.71,25.146 49.4,49.418 49.72,84 0.07,7.063 -6.46,14.804 -9.46,21 -9.01,18.61 -23.88,53.771 -6.05,71.699 10.71,10.765 30.71,11.248 44.79,9.587 14.43,-1.703 28.68,-2.87 43,-5.735 11.53,-2.306 23.3,-6.596 35,-7.551 1.94,24.547 4,48.297 4,73 0,6.674 2.39,21.768 -2.03,27.258 -2.67,3.319 -12.01,3.198 -15.97,3.742 -14.99,2.06 -30,3.491 -45,5.286 -48.1,5.752 -100.09,7.165 -148,-0.872 -21.077,-3.536 -43.922,-8.902 -57.88,-26.418 -21.475,-26.951 -12.049,-69.411 -1.776,-98.996 2.955,-8.509 6.458,-16.911 10.408,-25 0.903,-1.85 4.098,-7.316 0.814,-8.654 -4.006,-1.633 -8.048,10.106 -9.139,12.654 -6.631,15.496 -12.193,31.503 -15.765,48 -5.165,23.856 -5.611,50.892 8.443,72 13.428,20.167 40.569,30.143 63.895,32 -2.273,12.748 -12.623,26.766 -19,38 -1.842,3.246 -3.756,9.786 -7.39,11.382 -6.135,2.694 -19.974,-1.311 -26.61,-2.096 -19.254,-2.28 -38.704,-3.279 -58,-5.116 C 823.306,818.104 757.989,814 694,814 700.218,771.74 730.13,727.381 755.127,694 827.95,596.751 931.626,525.366 1049,495 m -237,3.424 c -10.931,1.435 -22.026,-0.086 -33,0.665 -37.548,2.572 -75.398,2.225 -113,3.872 -9.947,0.435 -20.111,-0.835 -30,0.463 -12.788,1.679 -26.118,0.604 -39,1.487 -2.92,0.199 -12.094,-1.466 -13.168,2.348 -1.443,5.124 9.683,3.752 12.168,3.74 13.517,-0.065 28.597,0.336 42,-1.423 46.734,-6.136 95.172,1.235 142,-4.29 10.585,-1.249 21.397,0.553 32,-0.456 2.48,-0.236 9.411,-10e-4 10.824,-2.414 3.018,-5.156 -8.869,-4.248 -10.824,-3.992 M 960,555 c -5.41,1.798 -3.105,6.162 2,5 l 3,8 c 4.622,-1.785 4.521,-4.671 3,-9 8.593,-3.039 6.111,-7.444 -2,-7 -0.205,-2.238 -3.612,-11.54 -6.358,-5.551 -1.072,2.339 0.163,6.077 0.358,8.551 m 74,63 c 0.31,2.049 3.79,11.806 6.36,5.677 1.28,-3.039 -1.45,-6.349 0.43,-9.298 1.74,-2.725 5.69,-3.434 7.03,-6.506 2.94,-6.724 -9.3,-0.704 -10.82,0.127 -0.71,-1.987 -1.84,-6.326 -4.79,-5.824 -3.36,0.572 -1.42,7.357 -2.9,9.614 -1.74,2.645 -5.66,3.516 -6.9,6.494 -3,7.151 9.99,0.463 11.59,-0.284 m 311,60 c -27,-4.298 -59.51,10.5 -84,20 -1.65,-5.214 -5.49,-16.462 -3.38,-21.7 1.46,-3.636 6.37,-6.196 9.38,-8.416 8.47,-6.245 17.03,-12.564 26,-18.073 34.81,-21.37 84.96,-37.538 121,-9.142 15.08,11.883 22.22,29.577 22,48.331 -0.11,8.871 -3.24,20.331 -12,24.424 -2.97,1.387 -9.92,2.002 -10.47,-2.649 -0.45,-3.776 3,-8.184 3.98,-11.775 2.21,-8.07 1.63,-16.349 -1.82,-24 -15.25,-33.787 -56.47,-26.879 -70.69,3 M 868,660 c -8.74,0.212 -8.795,5.896 0,6 0.099,8.368 5.886,10.586 6,1 9.189,-0.109 9.189,-5.891 0,-6 -0.008,-10.538 -5.991,-12.842 -6,-1 m 377,-4 c 8.26,21.905 12,48.691 12,72 0,8.877 -0.28,20.78 -6.39,27.895 -7.35,8.552 -24.98,10.732 -35.61,12.105 0.21,-25.047 1.64,-49.922 -0.09,-75 -0.41,-5.913 -5.48,-21.404 -1.88,-26.297 4.48,-6.083 24.72,-8.345 31.97,-10.703 m -669.004,12.444 c -23.397,2.089 -47.514,2.966 -70.996,3.541 -3.006,0.074 -23.297,-1.505 -21.248,4.64 1.34,4.022 18.444,1.416 22.248,1.371 18.307,-0.218 36.709,-2.156 55,-2.957 5.036,-0.22 16.263,2.007 20.149,-2.023 3.273,-3.395 -2.983,-4.766 -5.153,-4.572 M 1344,683 c -1.34,17.629 5.88,33.904 23,41.323 4.83,2.095 18.88,0.75 21.3,4.995 7.55,13.234 7.85,35.78 11.12,50.682 5.92,26.947 11.74,53.953 17.18,81 2.56,12.738 7.13,25.966 7.4,39 -17.63,1.403 -35.7,7.11 -53,10.789 -33.97,7.224 -67.94,14.598 -102,21.411 -13.03,2.605 -25.97,5.59 -39,8.2 -4.79,0.959 -11.03,3.626 -15.91,2.993 -6.61,-0.858 -13.92,-12.618 -19.09,-16.727 -13.11,-10.426 -28.39,-18.297 -44,-24.242 -59.03,-22.475 -127.94,-33.25 -191,-33.424 6.047,-20.993 21.579,-41.677 31.781,-61 3.295,-6.241 7.543,-19.133 13.609,-22.972 4.88,-3.092 16.1,0.278 21.61,0.802 16.6,1.58 33.33,1.17 50,1.17 35.75,0 71.57,-2.944 107,-7.87 19.79,-2.751 41.26,-4.92 60,-12.199 18.74,-7.275 19.2,-28.837 19,-45.931 -0.06,-4.589 -2.81,-12.303 0.03,-16.363 3.43,-4.92 13.61,-6.767 18.97,-8.687 20.47,-7.336 40.91,-9.035 62,-12.95 m -340,23 3,7 c 4.36,-1.683 14.36,-24.982 1,-17 -0.78,-1.766 -2.09,-5.038 -4.72,-3.744 -2.6,1.277 -1.47,5.261 -2.97,7.365 -2.275,3.19 -7.545,3.844 -9.134,7.569 -3.398,7.964 11.254,-0.317 12.824,-1.19 m 122,44 c 0.99,1.89 8.18,10.475 8.96,3.847 0.36,-3.02 -2.96,-5.01 -3.36,-7.847 -0.37,-2.565 3.12,-5.87 1.31,-8.199 -1.73,-2.227 -5.61,0.691 -7.91,0.017 -2.15,-0.63 -7.53,-6.732 -9.68,-3.195 -1.64,2.705 2.24,6.174 3.28,8.377 2.35,4.98 -0.22,10.017 7.4,7 m -365,-8 c -2.576,-1.306 -5.866,-4.418 -8.851,-4.368 -7.045,0.117 1.9,8.344 3.851,9.368 -2.126,5.144 -0.141,10.189 5,5 h 1 c 6.022,7.568 11.461,0.54 3,-4 3.581,-7.363 1.758,-16.732 -4,-6 m 842,15 c -2.23,0.399 -14.13,6.22 -6.76,7.88 3.03,0.681 7.02,-1.816 9.76,-2.88 0.6,2.183 5.89,19.189 9.88,13.377 2.44,-3.553 -3.3,-13.003 -4.88,-16.377 2.09,-0.598 19.85,-7.825 11.83,-10.212 -4.37,-1.302 -10.46,3.433 -14.83,4.212 -0.39,-2.261 -6.21,-15.935 -8.07,-7.847 -0.8,3.493 2.26,8.42 3.07,11.847 m -652,37 c -8.61,1.796 -4.707,7.418 3,5 0.449,1.894 5.549,15.859 8.304,8.677 1.229,-3.204 -1.97,-6.277 -1.322,-9.452 0.626,-3.063 4.604,-3.046 5.842,-5.624 2.984,-6.214 -8.003,-2.446 -9.824,-1.601 -0.439,-1.851 -5.492,-16.263 -8.354,-9.663 -1.486,3.426 1.822,9.114 2.354,12.663 m -88,1 c -2.324,1.187 -14.706,8.429 -10.338,11.928 3.718,2.978 10.883,-4.791 13.338,-6.928 0.529,1.776 5.173,11.23 7.293,5.663 1.126,-2.957 -1.598,-7.727 -2.293,-10.663 10.042,-4.739 5.148,-9.99 -4,-5 -3.302,-8.976 -6.682,-1.596 -4,5 m 106,43 c -2.946,7.038 -10.396,27.107 -17.39,30.397 C 945.928,871.069 935.225,869 929,869 H 875 684 l 4.651,-36 4.077,-11.972 L 711,821 l 53,1.911 141,9 64,6.089 m -431.019,4.533 c -39.609,0.813 -79.471,3.671 -118.981,6.378 -24.502,1.678 -49.647,0.467 -74,3.665 -14.785,1.941 -31.085,2.399 -46,2.424 -2.677,0.005 -13.931,-1.086 -13.079,3.981 0.714,4.245 11.096,2.021 14.079,2.019 15.069,-0.012 30.994,-0.742 46,-2.17 46.462,-4.422 93.432,-4.551 140,-7.741 12.653,-0.866 25.346,-1.133 38,-2 4.929,-0.337 11.232,1.096 15.851,-0.982 4.383,-1.971 2.104,-5.655 -1.87,-5.574 m 1041.299,3.553 c -3.56,1.819 -11.59,19.27 -4.5,17.163 4.56,-1.352 11.66,-20.819 4.5,-17.163 M 1499,847 c -12.54,30.109 -18.96,59.776 -2.14,90 6.23,11.194 17.9,19.77 23.14,31 -8.31,1.056 -21.23,5.111 -28.91,0.142 -7.45,-4.823 -11.98,-17.257 -15.23,-25.142 -8.45,-20.503 -10.22,-44.37 -5.65,-66 1.28,-6.062 2.49,-15.541 6.63,-20.366 4.64,-5.399 15.36,-8.63 22.16,-9.634 m -411.66,15.023 c -6.92,4.712 11.49,5.887 13.66,5.966 26.35,0.959 53.06,10.882 76,23.32 7.03,3.812 13.49,8.435 20,13.047 1.87,1.321 5.79,4.548 8.2,2.572 2.74,-2.254 -1.63,-5.904 -3.22,-7.179 -6.52,-5.211 -13.79,-9.539 -20.98,-13.737 -20.97,-12.242 -45.03,-19.809 -69,-23.142 -5.91,-0.822 -19.45,-4.402 -24.66,-0.847 M 1468,862 c -5.76,24.905 -8.73,47.969 -0.97,73 3.42,11.067 9.44,20.485 13.97,31 -24.5,-5.819 -51.88,-36.49 -48.64,-63 1.53,-12.454 11.31,-23.651 20.64,-31.195 4.63,-3.747 9.29,-7.913 15,-9.805 m 176.94,10.836 c -4.49,-0.184 -9.79,2.991 -13.94,4.472 -10.33,3.69 -20.73,7.274 -31,11.116 -1.47,0.55 -15.28,6.36 -7.68,8.509 3.95,1.118 10.05,-2.554 13.68,-3.88 11.72,-4.284 31.06,-7.139 40.66,-15.127 2.39,-1.982 1.41,-4.963 -1.72,-5.09 M 1506,887.289 c 14.32,-1.859 26.2,10.032 17.03,23.671 -4.55,6.763 -13.37,8.941 -21.03,9.749 -9.66,1.021 -12.37,-20.552 -9.4,-27.575 1.91,-4.494 9.17,-5.295 13.4,-5.845 M 1421,906 c -5.07,15.916 -19.73,32.089 -29,46 -19.45,29.179 -38.21,58.82 -57.67,88 -43.31,64.97 -85.35,130.81 -128.33,196 -25.23,38.26 -53.71,75.97 -76,116 h -1 c -0.09,-33.35 -3.48,-66.95 -8.13,-100 -1.37,-9.71 -3.15,-19.39 -5.07,-29 -0.83,-4.15 -3.04,-9.82 -1.77,-14 2.11,-6.98 10.48,-14.29 14.97,-20 10.07,-12.81 19.78,-26.27 28.56,-40 31.96,-49.93 69.13,-112.29 66.4,-174 -0.41,-9.319 -5.37,-17.081 -6.96,-26 L 1308,930.003 1421,906 m -503.852,17.759 c 6.568,-0.82 16.184,5.167 21.852,7.994 21.128,10.537 39.536,24.503 55.155,42.247 55.465,63 83.115,154.2 99.845,235 5.65,27.28 10.05,55.22 12.09,83 0.28,3.83 4.41,26.36 -1.09,26.36 -5.62,0 -4.81,-21.27 -5.04,-25.36 -1.56,-28.11 -7.01,-56.44 -12.56,-84 -10.63,-52.82 -27.62,-105.27 -50.62,-154 -14.09,-29.86 -30.34,-59.309 -53.784,-83 -19.961,-20.169 -41.481,-29.424 -65.848,-42.108 -2.67,-1.39 -4.168,-5.612 0,-6.133 m 672.472,7.327 c -2.51,1.748 0.14,4.926 1.53,6.324 2.76,2.78 15,15.483 19.2,12.507 2.39,-1.688 -0.28,-4.827 -1.58,-6.163 -2.74,-2.823 -14.97,-15.569 -19.15,-12.668 M 1194,941.287 c 2.08,-0.242 9.79,0.088 6.29,4.133 -1.92,2.216 -6.6,2.262 -9.29,2.777 -8.96,1.717 -18,3.057 -27,4.556 -34.94,5.822 -70.05,10.539 -105,16.327 -10.68,1.769 -21.33,3.717 -32,5.506 -2.53,0.425 -9.34,2.64 -10.65,-0.853 -1.52,-4.032 6.42,-4.751 8.65,-5.157 10.66,-1.944 21.31,-3.886 32,-5.656 45.39,-7.518 91.32,-16.309 137,-21.633 M 450,1033 c 2.381,5.92 10.582,4.06 16,4 16.66,-0.2 33.342,-2.8 50,-3 4.005,-0.04 17.466,1.45 19.824,-2.58 3.581,-6.13 -17.47,-3.42 -19.824,-3.42 -15.85,0.03 -32.223,1.33 -48,2.83 -6.245,0.59 -12.183,-0.63 -18,2.17 m 1319,12 c -11.51,1.49 -10.81,8.43 1,6 0.36,2.8 1.88,21.85 7.41,17.91 3.73,-2.65 -0.69,-16.06 -1.41,-19.91 2.08,-0.09 19.91,-3.92 12.66,-7.38 -3.91,-1.87 -9.49,2.78 -12.92,-0.31 -2.95,-2.66 -1.11,-7.99 -4.28,-10.6 -6.19,-5.08 -2.82,12.39 -2.46,14.29 M 273,1145 c -1.773,-6.03 -5.524,-11.55 -10.04,-15.91 -3.41,-3.29 -7.529,-5.93 -11.96,-7.62 -31.684,-12.12 -45.925,34.3 -14,44.09 4.538,1.39 9.314,1.82 14,0.98 7.348,-1.33 13.519,-5.09 20,-8.54 0.072,8.68 0.664,16.53 -2.029,25 -7.709,24.26 -30.626,35.37 -53.971,39.58 -38.916,7.01 -88.842,-6.34 -119.7106,25.59 -15.7173,16.26 -22.1537,40.87 -17.6235,62.83 1.4418,6.99 5.6305,25.67 15.3341,22 -3.7125,-12.62 -11.5106,-23.01 -10.7909,-37 0.4047,-7.87 2.0994,-15.69 4.9946,-23 30.9123,-78.03 146.3993,-7.33 183.6763,-78 4.41,-8.36 7.041,-18.52 7.041,-28 0,-4.47 -2.274,-9.63 -0.813,-14 2.198,-6.57 8.527,-12.57 11.634,-19 6.646,-13.76 7.762,-29.07 6.091,-44 -1.191,-10.65 -5.254,-20.94 -10.899,-30 -1.425,-2.29 -5.623,-9.6 -9.287,-6.91 -2.333,1.7 0.201,5.27 1.257,6.91 4.362,6.76 8.347,13.2 10.657,21 5.758,19.45 3.915,50.5 -13.561,64 m 582,-58 c 16.144,17.69 27.966,40.08 39.309,61 33.919,62.57 54.098,135.32 54.691,207 l -56,1 c -10.185,-44.43 -34.647,-87.75 -64.282,-122 -10.75,-12.42 -22.295,-23.97 -34.718,-34.72 -3.465,-3 -13.52,-8.38 -13.883,-13.32 -0.518,-7.07 14.014,-20.49 18.232,-25.96 12.299,-15.96 24.543,-31.98 36.767,-48 6.287,-8.24 12.125,-18.11 19.884,-25 m -618,39.33 c 11.316,-2.04 20.969,4.43 26.91,13.67 1.804,2.81 4.979,7.38 3.734,10.91 -2.073,5.86 -12.27,8.51 -17.644,9.47 -21.19,3.79 -38.197,-29.5 -13,-34.05 M 802,1533 c -16.105,38.73 -43.499,73.02 -77,98.1 -8.26,6.19 -17.075,11.74 -26,16.9 -1.64,0.95 -8.064,3.7 -6.079,6.51 2.5,3.54 11.701,-3.28 14.079,-4.71 13.876,-8.38 26.977,-18.1 39,-28.97 18.152,-16.42 33.965,-35.85 46.551,-56.83 4.022,-6.7 9.766,-26.17 16.839,-29.39 4.507,-2.05 12.837,0.9 17.61,1.44 16.69,1.88 33.261,5.63 50,6.95 -16.46,42.44 -40.812,79.82 -73,112 -26.094,26.08 -58.143,46.93 -92,61.42 -156.726,67.07 -346.037,-11.13 -405.681,-172.42 -9.419,-25.47 -16.325,-52.83 -18.229,-80 -2.502,-35.69 -0.324,-71.3 9.061,-106 40.527,-149.82 188.489,-244.24 340.849,-222.27 34.578,4.98 69.546,16.49 100,33.69 8.18,4.63 22.881,10.27 28.339,18.1 3.183,4.57 -5.876,13.06 -8.469,16.48 -11.408,15.07 -23.144,29.89 -34.497,45 -18.136,24.14 -36.593,48.08 -55.024,72 -6.35,8.24 -14.227,24 -23.439,28.97 -8.629,4.66 -27.165,0.03 -36.91,0.03 -30.243,0 -56.5,6.7 -74.958,33 -27.474,39.15 -11.014,95.24 32.958,114.13 19.089,8.2 42.554,8.15 63,11 34.648,4.83 69.266,10.55 104,14.71 22.199,2.67 47.631,3.67 69,10.16 m 725,-137 -12.39,-65 -37.61,-195 c 23.82,-1.02 46.91,-5.56 71,-3.91 79.47,5.44 155.18,40.59 208.83,99.91 98.73,109.16 103.93,279.59 12.96,395 -22.88,29.03 -51.09,53.53 -82.79,72.55 -34.87,20.92 -73.82,34.26 -114,40.18 -34.97,5.15 -70.37,3.64 -105,-3.33 -32.15,-6.47 -63.76,-18.3 -92,-35 -144.74,-85.64 -194.8,-276.78 -108.2,-421.4 20.17,-33.69 46.76,-63.33 78.2,-86.87 34.26,-25.66 73.27,-43.92 115,-53.48 2.67,-0.61 7.66,-2.54 9.84,-0.03 3.29,3.81 3.19,13.52 4.16,18.38 3.06,15.32 5.94,30.68 9,46 11.63,58.18 23.97,116.51 33.92,175 0.83,4.88 4.19,13.05 2.44,17.82 -1.26,3.41 -5.59,5.44 -7.83,8.22 -6.09,7.54 -6.86,17.78 -1.56,25.96 16.47,25.39 58.64,0.48 39.5,-23.99 -2.54,-3.24 -5.84,-5.77 -9.47,-7.68 -4.36,-2.3 -9.12,-3.12 -14,-3.33 m 283,-222 c -1.98,0.77 -11.57,7.76 -4.77,8.46 2.91,0.3 6.25,-2.29 8.77,-3.46 0.77,2.09 9.27,17.52 11.17,9.83 1.08,-4.35 -4.85,-10.67 -6.17,-14.83 2.57,-0.97 18.81,-9.1 13.38,-12.92 -4.12,-2.89 -14.28,6.54 -17.38,8.92 -0.79,-1.69 -10.2,-18.47 -11.87,-10.68 -0.94,4.41 4.9,10.97 6.87,14.68 m -938.643,-14.82 c -3.214,1.71 0.349,6.84 1.413,8.82 4.252,7.92 8.235,15.79 11.924,24 13.397,29.8 23.753,65.11 24.303,98 0.127,7.63 0.685,15.35 1.022,23 0.09,2.04 0.547,6.27 3.722,5.25 2.716,-0.88 2.243,-5.07 2.258,-7.25 0.054,-7.74 -0.816,-15.3 -0.999,-23 -0.791,-33.26 -11.117,-67.65 -24.15,-98 -3.638,-8.47 -7.642,-17.02 -12.278,-25 -1.225,-2.11 -3.924,-7.58 -7.215,-5.82 M 169,1182 c 0.861,1.88 1.693,3.38 2.979,5.02 1.691,2.17 11.741,10.45 9.224,1.96 -1.119,-3.77 -5.279,-6.15 -6.09,-9.98 -0.723,-3.41 3.057,-16.6 -5.113,-6 -1.854,-1.83 -6.215,-7.51 -9.378,-5.67 -3.515,2.04 2.763,8.5 1.471,11.67 -1.756,4.31 -7.491,6.37 -8.747,10.94 -0.888,3.23 2.568,3.56 4.659,2.4 4.183,-2.33 7.636,-6.98 10.995,-10.34 m 716,174 -232,-5 35.127,-47 L 773,1193 c 16.62,7.04 32.648,25.63 44.282,39 30.787,35.38 57.114,77.75 67.718,124 M 418.985,1239.96 c -10.61,4.25 -21.209,17.52 -28.395,26.04 -23.64,28.02 -38.975,61.73 -44.318,98 -2.203,14.95 -2.538,29.97 -1.102,45 0.243,2.54 0.808,15.45 5.569,13.65 4.005,-1.5 1.091,-11.6 0.685,-14.65 -2.065,-15.54 -0.943,-31.57 1.657,-47 5.325,-31.6 19.082,-62.2 39.382,-87 8.524,-10.41 24.088,-19.14 30.825,-30.15 2.122,-3.47 -1.309,-5.09 -4.303,-3.89 M 169,1306 c -5.267,-3.63 -9.998,0.27 -4,4 -0.851,1.8 -9.371,15.14 -2.034,13.25 3.478,-0.9 4.467,-5.99 8.127,-6.28 3.334,-0.27 9.046,7.14 12.075,3.39 2.93,-3.64 -5.977,-7.78 -7.055,-10.53 -1.163,-2.97 2.102,-5.57 1.151,-8.51 -1.871,-5.77 -7.397,2.88 -8.264,4.68 m 497,134 c -6.237,22.14 -18.692,42.43 -41,51.55 -45.334,18.52 -104.607,-14.7 -99.829,-67.55 3.503,-38.75 32.212,-68 71.829,-68 9.36,0 26.724,1.13 33.573,8.65 3.901,4.28 -6.389,13.95 -8.947,17.35 -8.835,11.73 -17.891,23.29 -26.756,35 -2.448,3.23 -9.416,9.35 -8.837,13.77 0.603,4.61 15.377,4.12 18.967,4.22 18.817,0.49 42.977,-0.32 61,5.01 m -26,-83 -2,4 -8,-3 10,-1 m 247,5 c 4.018,29.84 9,57.66 9,88 l -223,-16 c 0,-27.96 -8.838,-50.95 -31,-69 6.534,-10.41 14.333,-7.51 25,-7.04 12.326,0.54 24.694,0.46 37,1 60.801,2.66 122.126,3.04 183,3.04 m 889.29,-1.65 c -4.22,1.59 0.52,11.01 1.37,13.65 4.64,14.54 7.72,29.8 9.17,45 4.72,49.56 -7.49,102.01 -34.52,144 -6.13,9.53 -12.91,18.21 -20.02,27 -1.15,1.42 -6.15,8.36 -1.06,8.36 4.09,0 7.53,-5.58 9.77,-8.36 7.42,-9.22 14.34,-18.82 20.4,-29 25.46,-42.8 36.15,-94.63 31.43,-144 -1.42,-14.84 -4.15,-29.83 -8.83,-44 -0.88,-2.67 -3.21,-14.35 -7.71,-12.65 M 950,1361 l 5,94 -51,-4 c 0,-30.61 -4.944,-58.88 -9,-89 l 55,-1 m 329.37,5.18 c -7.5,3.52 -11.31,26.4 -12.95,33.82 -8.01,36.28 -6.29,73.82 5.92,109 3.96,11.4 9.08,22.64 15.26,33 1.36,2.28 5.07,9.85 8.79,7.67 3.46,-2.03 -1.58,-8.65 -2.79,-10.67 -6.29,-10.51 -11.64,-21.38 -15.6,-33 -12.27,-36.04 -13.89,-75.31 -3.42,-112 2.22,-7.78 6.32,-15.21 8.26,-23 0.55,-2.24 -0.15,-6.38 -3.47,-4.82 M 667,1433 l -73,-5 c 8.535,-14.98 21.027,-28.23 31.373,-42 2.953,-3.93 7.709,-13.31 12.716,-14.65 4.892,-1.32 11.671,8.38 14.242,11.65 11.547,14.68 14.669,31.84 14.669,50 m 462,-53 c 44.87,25.94 48.11,93.69 24.72,134 -7.09,12.21 -17.22,22.47 -28.72,30.56 -3.55,2.5 -9.36,7.36 -13.99,6.91 -7.62,-0.74 -19.48,-21.96 -17.23,-29.26 1.3,-4.21 8.96,-6.2 12.22,-8.74 6.16,-4.81 10.31,-11.88 11.98,-19.47 5.63,-25.53 7.15,-52.99 8.93,-79 0.7,-10.23 -1.83,-25.66 2.09,-35 m -234,76 c -0.002,20.44 -4.526,41.35 -9.849,61 -1.268,4.68 -2.685,17.15 -7.57,19.38 -4.689,2.15 -14.597,-1.22 -19.581,-1.96 -15.57,-2.3 -31.312,-5.18 -47,-6.42 3.048,-13.17 8.487,-25.65 11.199,-39 0.571,-2.81 3.539,-11.1 -0.409,-12.65 -3.962,-1.56 -4.76,8.51 -5.19,10.65 -2.755,13.75 -7.929,26.55 -11.6,40 L 677,1508.87 619,1501 c 13.993,-11.3 28.925,-15.25 40.254,-31 4.392,-6.11 7.598,-12.91 10.05,-20 0.959,-2.77 1.204,-7.93 4.129,-9.4 4.049,-2.03 11.166,0.33 15.567,0.4 16.241,0.27 32.83,2.29 49,3.83 29.896,2.85 60.037,4.21 90,6.26 22.216,1.52 44.724,4.9 67,4.91 m 61,5 c 0,18.86 -4.699,45.14 5.353,62 3.582,6.01 9.783,10.24 16.647,11.53 3.285,0.62 8.642,-0.58 11.142,2.07 3.373,3.58 1.858,11.89 1.858,16.4 l -104,-14 c 4.089,-27.69 15.763,-53.32 16,-82 l 53,4 m 131,62 5,16 c -7.49,4.37 -14.86,8.24 -20.56,15 -0.87,1.03 -6.98,8.79 -2.21,8.79 3.29,0 6.68,-5.7 8.78,-7.75 5.25,-5.11 11.23,-8.41 17.99,-11.04 l 14,17 c -6.85,4.53 -13.33,8.86 -18.91,15 -1.03,1.14 -5.9,6.32 -2.64,7.65 2.65,1.09 5.39,-3.08 6.84,-4.62 4.67,-4.95 10.44,-9.48 16.71,-12.23 7.5,-3.28 17.4,3.46 25,5.2 -2.58,3.03 -5.84,4.84 -9,7.24 -3.58,2.71 -7.67,5.76 -9.91,9.76 -0.76,1.35 -1.8,4.84 1.08,4.37 3.35,-0.55 6.38,-4.98 8.83,-7.07 5.91,-5.06 13.96,-10.73 22,-11.19 14.07,-0.81 33.25,6.19 42.33,16.98 2.73,3.24 8.63,11.73 5.6,16.21 -2,2.97 -7.73,3.76 -10.93,4.57 -10.78,2.74 -22.86,4.57 -34,4.09 -39.07,-1.69 -79.03,-11.08 -117,-20.08 -9.46,-2.24 -31.52,-3.35 -38.258,-10.58 -2.961,-3.18 -1.878,-10.31 -1.703,-14.3 0.561,-12.8 1.578,-24.2 -0.039,-37 31.29,0 60.32,-7.87 91,-12 m 110,93 c -7.03,18.14 -27.68,18.39 -44,17.99 -38.75,-0.95 -78.51,-10.48 -117,-15.15 -17.01,-2.06 -32.07,-7.43 -38,-24.84 65.1,8.77 132.97,43.11 199,22 m -176,6 c 14.82,3.84 30.8,5.24 46,6.95 9.69,1.09 19.32,2.73 29,3.89 8.22,0.99 25.01,0.03 31.68,5.1 7.69,5.83 -0.92,18.42 -7.68,20.16 -7.71,1.98 -16.22,-0.3 -24,-1.03 -17.68,-1.64 -35.37,-3.62 -53,-5.79 -7.43,-0.91 -19.02,0.15 -24.72,-5.56 -6.62,-6.63 -1.1,-17.14 2.72,-23.72 z"
       id="path1984" />
  </g>
</svg>
